<svg width="150" height="49" viewBox="0 0 150 49" fill="none" xmlns="http://www.w3.org/2000/svg">
<path d="M13.1836 16.1719C11.9062 16.1719 10.7285 16.5176 9.65039 17.209C8.56055 17.8887 7.69922 18.8027 7.06641 19.9512C6.43359 21.0879 6.11719 22.2832 6.11719 23.5371C6.11719 24.791 6.43945 25.9863 7.08398 27.123C7.72852 28.2832 8.58398 29.2031 9.65039 29.8828C10.7285 30.5742 11.9062 30.9199 13.1836 30.9199C14.4492 30.9199 15.6211 30.5742 16.6992 29.8828C17.7656 29.2031 18.627 28.2832 19.2832 27.123C19.916 25.9746 20.2324 24.7793 20.2324 23.5371C20.2324 22.2832 19.916 21.0879 19.2832 19.9512C18.6504 18.8145 17.7949 17.9004 16.7168 17.209C15.6152 16.5176 14.4375 16.1719 13.1836 16.1719ZM13.1836 10.4766C15.5625 10.4766 17.7598 11.0566 19.7754 12.2168C21.8027 13.3887 23.4023 14.9707 24.5742 16.9629C25.7578 18.9785 26.3496 21.1699 26.3496 23.5371C26.3496 25.916 25.7578 28.1016 24.5742 30.0938C23.4023 32.0977 21.8027 33.6797 19.7754 34.8398C17.7598 36 15.5625 36.5801 13.1836 36.5801C10.8164 36.5801 8.61914 36 6.5918 34.8398C4.55273 33.668 2.94727 32.0859 1.77539 30.0938C0.591797 28.1016 0 25.916 0 23.5371C0 21.1699 0.591797 18.9785 1.77539 16.9629C2.94727 14.9824 4.55273 13.4004 6.5918 12.2168C8.61914 11.0566 10.8164 10.4766 13.1836 10.4766ZM35.6998 23.7129C34.7623 24.6152 34.2935 25.6934 34.2935 26.9473C34.2935 27.7793 34.5103 28.5293 34.9439 29.1973C35.3775 29.8887 35.9576 30.4395 36.6841 30.8496C37.399 31.2598 38.1666 31.4648 38.9869 31.4648C39.8072 31.4648 40.5806 31.2598 41.3072 30.8496C42.0338 30.4395 42.6138 29.8887 43.0474 29.1973C43.481 28.5176 43.6978 27.7676 43.6978 26.9473C43.6978 25.7051 43.2291 24.627 42.2916 23.7129C41.3658 22.8105 40.2642 22.3594 38.9869 22.3594C37.7213 22.3594 36.6255 22.8105 35.6998 23.7129ZM28.6861 42.9082V26.8242C28.6978 25.0312 29.1724 23.4199 30.1099 21.9902C31.0474 20.5254 32.313 19.377 33.9068 18.5449C35.5005 17.7012 37.1939 17.2793 38.9869 17.2793C40.358 17.2793 41.6588 17.5195 42.8892 18C44.108 18.4453 45.2154 19.1191 46.2115 20.0215C47.1959 20.9238 47.9576 21.9551 48.4966 23.1152C49.0357 24.2754 49.3052 25.5527 49.3052 26.9473C49.3052 28.3066 49.0298 29.5781 48.4791 30.7617C47.94 31.9336 47.1841 32.959 46.2115 33.8379C45.2388 34.7285 44.1314 35.4023 42.8892 35.8594C41.6353 36.3164 40.3345 36.5449 38.9869 36.5449C37.6627 36.5449 36.3677 36.3164 35.1021 35.8594L34.6978 35.6836L34.2935 35.5078V42.9258L28.6861 42.9082ZM55.3507 22.7988H51.6417L52.9073 17.9824H55.3507V11.0566L60.9581 11.0918V17.9824H64.6847L63.4366 22.7988H60.9581V28.7578C60.9581 30.3516 61.9542 31.1484 63.9464 31.1484C64.5909 31.1484 65.0831 31.0723 65.423 30.9199L63.8058 36.5098C63.5128 36.5566 63.2257 36.5801 62.9445 36.5801C61.2687 36.5801 59.8741 36.3105 58.7609 35.7715C57.6359 35.2324 56.7863 34.418 56.212 33.3281C55.6378 32.25 55.3507 30.873 55.3507 29.1973V22.7988ZM73.5602 18.0176V36.0352H67.9528V18.0352L73.5602 18.0176ZM73.5778 12.9199C73.5778 13.4824 73.4489 13.9805 73.1911 14.4141C72.9333 14.8477 72.5817 15.1992 72.1364 15.4688C71.6911 15.7383 71.1989 15.873 70.6598 15.873C70.1208 15.873 69.6345 15.7441 69.2009 15.4863C68.7555 15.2168 68.404 14.8594 68.1462 14.4141C67.8766 13.9453 67.7419 13.4473 67.7419 12.9199C67.7419 12.3809 67.8708 11.8887 68.1286 11.4434C68.4098 10.9863 68.7673 10.6289 69.2009 10.3711C69.6345 10.1133 70.1208 9.98438 70.6598 9.98438C71.1989 9.98438 71.6911 10.1133 72.1364 10.3711C72.57 10.6289 72.9216 10.9863 73.1911 11.4434C73.4489 11.8887 73.5778 12.3809 73.5778 12.9199Z" fill="#A0AEC0"/>
<path d="M77 36V11.0566H84.4531C86.1172 11.0566 87.5352 11.1855 88.707 11.4434C89.9023 11.7012 90.9336 12.1348 91.8008 12.7441C92.668 13.3535 93.3359 14.1797 93.8047 15.2227C94.2734 16.2656 94.5078 17.5371 94.5078 19.0371C94.5078 20.2676 94.2734 21.3691 93.8047 22.3418C93.3359 23.3145 92.6855 24.1465 91.8535 24.8379C91.0098 25.541 90.0195 26.0742 88.8828 26.4375C87.7227 26.8125 86.5215 27 85.2793 27H83.1348V36H77ZM83.1348 16.3477V21.709H84.8926C86.0176 21.709 86.8848 21.4746 87.4941 21.0059C88.0918 20.5488 88.3906 19.8809 88.3906 19.002C88.3906 18.1465 88.0918 17.4902 87.4941 17.0332C86.8848 16.5762 86.0176 16.3477 84.8926 16.3477H83.1348Z" fill="#17BECF"/>
<path d="M105.229 17.3848V22.6934C104.936 22.4941 104.555 22.3828 104.086 22.3594H103.77C102.34 22.418 101.625 23.4141 101.625 25.3477V36H96V25.3477C96 20.2266 98.5898 17.5371 103.77 17.2793H104.086C104.473 17.291 104.854 17.3262 105.229 17.3848Z" fill="#F05064"/>
<path d="M119.094 22.9746C118.402 22.5762 117.664 22.377 116.879 22.377C116.094 22.377 115.355 22.5762 114.664 22.9746C114.242 23.2324 113.832 23.5957 113.434 24.0645H120.324C119.926 23.5957 119.516 23.2324 119.094 22.9746ZM123.787 20.0039C124.713 20.8594 125.439 21.8848 125.967 23.0801C126.494 24.2637 126.758 25.5293 126.758 26.877V27.0352C126.758 27.0938 126.752 27.1582 126.74 27.2285L126.705 27.5273H124.525V27.5625H112.432C112.572 28.5469 113 29.3965 113.715 30.1113C114.617 31.002 115.672 31.4473 116.879 31.4473C118.098 31.4473 119.152 31.002 120.043 30.1113L120.078 30.0762L120.131 30.0059L120.184 29.9531L120.219 29.9004L123.242 34.2246C122.375 34.9277 121.496 35.4609 120.605 35.8242C119.41 36.293 118.168 36.5273 116.879 36.5273C115.133 36.5273 113.51 36.1113 112.01 35.2793C110.475 34.4355 109.262 33.2812 108.371 31.8164C107.457 30.3516 107 28.7051 107 26.877C107 25.5059 107.264 24.2402 107.791 23.0801C108.318 21.9082 109.045 20.8887 109.971 20.0215C110.908 19.1309 111.963 18.457 113.135 18C114.342 17.5312 115.59 17.2969 116.879 17.2969C118.168 17.2969 119.41 17.5312 120.605 18C121.789 18.457 122.85 19.125 123.787 20.0039Z" fill="#A0AEC0"/>
<path d="M135.014 23.7129C134.076 24.6152 133.607 25.6934 133.607 26.9473C133.607 27.7793 133.824 28.5293 134.258 29.1973C134.691 29.8887 135.271 30.4395 135.998 30.8496C136.713 31.2598 137.48 31.4648 138.301 31.4648C139.121 31.4648 139.895 31.2598 140.621 30.8496C141.348 30.4395 141.928 29.8887 142.361 29.1973C142.795 28.5176 143.012 27.7676 143.012 26.9473C143.012 25.7051 142.543 24.627 141.605 23.7129C140.68 22.8105 139.578 22.3594 138.301 22.3594C137.035 22.3594 135.939 22.8105 135.014 23.7129ZM128 42.9082V26.8242C128.012 25.0312 128.486 23.4199 129.424 21.9902C130.361 20.5254 131.627 19.377 133.221 18.5449C134.814 17.7012 136.508 17.2793 138.301 17.2793C139.672 17.2793 140.973 17.5195 142.203 18C143.422 18.4453 144.529 19.1191 145.525 20.0215C146.51 20.9238 147.271 21.9551 147.811 23.1152C148.35 24.2754 148.619 25.5527 148.619 26.9473C148.619 28.3066 148.344 29.5781 147.793 30.7617C147.254 31.9336 146.498 32.959 145.525 33.8379C144.553 34.7285 143.445 35.4023 142.203 35.8594C140.949 36.3164 139.648 36.5449 138.301 36.5449C136.977 36.5449 135.682 36.3164 134.416 35.8594L134.012 35.6836L133.607 35.5078V42.9258L128 42.9082Z" fill="#17BECF"/>
</svg>
