<svg width="43" height="44" viewBox="0 0 43 44" fill="none" xmlns="http://www.w3.org/2000/svg">
<path d="M5.17293 0C2.31974 0 0 2.30438 0 5.13869V35.9708C0 38.8051 2.31974 41.1095 5.17293 41.1095H11.6391V32.1168C11.6391 29.2825 13.9588 26.9781 16.812 26.9781H31.0376V13.6898C31.0376 12.3248 30.496 11.0161 29.5261 10.0526L20.91 1.50146C19.94 0.537956 18.6306 0 17.2566 0H5.17293ZM26.3092 14.1314H18.7519C17.6769 14.1314 16.812 13.2723 16.812 12.2044V4.69708L26.3092 14.1314ZM16.812 30.511C15.9229 30.511 15.1955 31.2336 15.1955 32.1168V42.3942C15.1955 43.2774 15.9229 44 16.812 44C17.7011 44 18.4286 43.2774 18.4286 42.3942V40.146H19.3985C22.0739 40.146 24.2481 37.9861 24.2481 35.3285C24.2481 32.6708 22.0739 30.511 19.3985 30.511H16.812ZM19.3985 36.9343H18.4286V33.7226H19.3985C20.2876 33.7226 21.015 34.4453 21.015 35.3285C21.015 36.2117 20.2876 36.9343 19.3985 36.9343ZM27.1579 30.511C26.2688 30.511 25.5414 31.2336 25.5414 32.1168V42.3942C25.5414 43.2774 26.2688 44 27.1579 44H29.7444C32.0641 44 33.9474 42.1292 33.9474 39.8248V34.6861C33.9474 32.3818 32.0641 30.511 29.7444 30.511H27.1579ZM28.7744 40.7883V33.7226H29.7444C30.2778 33.7226 30.7143 34.1562 30.7143 34.6861V39.8248C30.7143 40.3547 30.2778 40.7883 29.7444 40.7883H28.7744ZM35.8872 32.1168V42.3942C35.8872 43.2774 36.6147 44 37.5038 44C38.3929 44 39.1203 43.2774 39.1203 42.3942V38.8613H41.3835C42.2726 38.8613 43 38.1387 43 37.2555C43 36.3723 42.2726 35.6496 41.3835 35.6496H39.1203V33.7226H41.3835C42.2726 33.7226 43 33 43 32.1168C43 31.2336 42.2726 30.511 41.3835 30.511H37.5038C36.6147 30.511 35.8872 31.2336 35.8872 32.1168Z" fill="#522463"/>
</svg>
